<svg width="57" height="100" viewBox="0 0 57 100" fill="none" xmlns="http://www.w3.org/2000/svg">
<path d="M20.4197 0H2.0671C1.23097 0 0.763624 0.967417 1.27699 1.6274C19.5818 25.1601 32.0766 50 35.3933 50C32.0785 50 19.5966 75.2876 1.30945 98.364C0.78717 99.023 1.25356 100 2.09447 100H20.4224C20.7798 100 21.1044 99.8183 21.2845 99.5097C28.8098 86.6143 45.9966 62.7209 55.8639 50.645C56.1726 50.2672 56.1653 49.7374 55.8481 49.3667C45.5389 37.318 29.2551 14.314 21.2846 0.495669C21.1053 0.184816 20.7785 0 20.4197 0Z" fill="#EBFFF2"/>
</svg>
